<svg width="24" height="24" viewBox="0 0 24 24" fill="none" xmlns="http://www.w3.org/2000/svg">
<path fill-rule="evenodd" clip-rule="evenodd" d="M1.92476 9.69306C0.53123 7.16662 0 5.12987 0 3.75419C0 2.37851 0.337994 1.98394 0.680965 1.66519C1.02394 1.34643 2.57049 0.392931 2.834 0.215106C3.09752 0.0372814 4.10324 -0.308302 4.73395 0.598977C5.36465 1.50626 6.55235 3.32788 7.37119 4.53802C8.65611 6.25208 7.63244 7.00453 7.30179 7.45552C6.69335 8.28541 6.34301 8.49009 6.34301 9.50912C6.34301 10.5281 9.1909 13.4232 9.87186 14.1365C10.5476 14.8444 13.3853 17.332 14.2646 17.4651C15.1501 17.599 16.3355 16.6616 16.5876 16.4238C17.8697 15.4395 18.5934 16.1858 19.184 16.5102C19.7746 16.8346 22.4429 18.4973 23.2698 19.0577C24.048 19.6182 23.9994 20.4844 23.9994 20.4844C23.9994 20.4844 23.4457 22.1007 22.1997 23.3376C21.8933 23.6418 21.3728 24 20.0595 24C18.7462 24 17.3431 23.7601 14.0083 21.9262C11.2797 20.4255 8.67856 18.0756 7.31664 16.7C5.90607 15.3243 3.51657 12.579 1.92476 9.69306Z" fill="#1C1D1E"/>
</svg>
